# xmcd
#
# Track frame offsets:
#	150
#	17700
#	35850
#	50925
#	66825
#	79950
#	97500
#	117075
#	133050
#	144525
#	158250
#	174000
#	189375
#	206250
#	222225
#	238350
#	252525
#	270675
#
# Disc length: 3631
#
# Revision: 1
# Processed by: cddbd v1.5.2PL0 Copyright (c) Steve Scherf et al.
# Submitted via: kJams Pro (development) 1.0patch49.41
#
DISCID=000e2d12
DTITLE=Various Artist - BHK314
DYEAR=2006
DGENRE=Country
TTITLE0=Carrie Underwood - We're Young and Beautiful
TTITLE1=Sugarland - My Heart's Broken Too
TTITLE2=Sugarland - Settlin'
TTITLE3=Sugarland - Want To
TTITLE4=Sugarland - Down in Mississippi (Up to No Good)
TTITLE5=John Mellencamp - Our Country
TTITLE6=Martina McBride - Anyway
TTITLE7=Heartland - I Loved Her First
TTITLE8=Miranda Lambert - Crazy Ex−Girlfriend
TTITLE9=Miranda Lambert - Kerosene
TTITLE10=Wreckers, The - Leave the Pieces
TTITLE11=Faith Hill - Sunshine and Summertime
TTITLE12=Kellie Pickler - Red High Heels
TTITLE13=Tim McGraw - When the Stars Go Blue
TTITLE14=Rascal Flatts - What Hurts the Most
TTITLE15=Danielle Peck - Finding A Good Man
TTITLE16=Sugarland - My Heart's Broken Too (Vocal)
TTITLE17=Empty Track - Empty Track (Do Not Rip)
EXTD=
EXTT0=
EXTT1=
EXTT2=
EXTT3=
EXTT4=
EXTT5=
EXTT6=
EXTT7=
EXTT8=
EXTT9=
EXTT10=
EXTT11=
EXTT12=
EXTT13=
EXTT14=
EXTT15=
EXTT16=
EXTT17=
PLAYORDER=
